# Blender v2.79 (sub 0) OBJ File: 'gate1.blend'
# www.blender.org
mtllib gate2016.mtl
o POLYFACE.660
v 0.587199 -0.589183 0.022683
v -0.612750 -0.579207 0.027411
v -0.612553 -0.579197 0.077410
v 0.587396 -0.589172 0.072683
v -0.602776 0.620751 0.027116
v -0.602579 0.620762 0.077116
v 0.597173 0.610776 0.022389
v 0.597370 0.610786 0.072388
v 0.647586 0.660358 0.022180
v -0.652359 0.671165 0.027301
v -0.652162 0.671176 0.077301
v 0.647784 0.660369 0.072179
v -0.663164 -0.628790 0.027620
v -0.662967 -0.628779 0.077620
v 0.636781 -0.639597 0.022499
v 0.636978 -0.639586 0.072498
vn 0.0083 1.0000 -0.0002
vn 1.0000 -0.0083 -0.0039
vn -0.0083 -1.0000 0.0002
vn -1.0000 0.0083 0.0039
vn -0.0039 -0.0002 -1.0000
vn 0.0039 0.0002 1.0000
usemtl Bronze
s 1
f 1//1 2//1 3//1
f 1//1 3//1 4//1
f 2//2 5//2 6//2
f 2//2 6//2 3//2
f 5//3 7//3 8//3
f 5//3 8//3 6//3
f 7//4 1//4 4//4
f 7//4 4//4 8//4
f 9//1 10//1 11//1
f 9//1 11//1 12//1
f 10//4 13//4 14//4
f 10//4 14//4 11//4
f 13//3 15//3 16//3
f 13//3 16//3 14//3
f 15//2 9//2 12//2
f 15//2 12//2 16//2
f 7//5 9//5 1//5
f 15//5 1//5 9//5
f 13//5 1//5 15//5
f 13//5 2//5 1//5
f 10//5 2//5 13//5
f 10//5 5//5 2//5
f 9//5 5//5 10//5
f 9//5 7//5 5//5
f 8//6 4//6 12//6
f 16//6 12//6 4//6
f 14//6 16//6 4//6
f 14//6 4//6 3//6
f 11//6 14//6 3//6
f 11//6 3//6 6//6
f 12//6 11//6 6//6
f 12//6 6//6 8//6
o POLYFACE.658
v 0.061392 2.691169 0.047880
v 0.011595 2.692209 0.052260
v 0.065759 2.690524 0.097685
v 0.015962 2.691564 0.102064
v -0.028585 0.653571 0.079577
v -0.032952 0.654217 0.029772
v 0.021212 0.652531 0.075197
v 0.016845 0.653176 0.025392
vn 0.0218 0.9997 0.0110
vn -0.0219 -0.9997 -0.0110
vn -0.9959 0.0208 0.0876
vn 0.0873 -0.0129 0.9961
vn 0.9959 -0.0208 -0.0876
vn -0.0873 0.0129 -0.9961
usemtl Bronze
s 1
f 17//7 18//7 19//7
f 20//7 19//7 18//7
f 21//8 22//8 23//8
f 24//8 23//8 22//8
f 20//9 18//9 21//9
f 22//9 21//9 18//9
f 19//10 20//10 23//10
f 21//10 23//10 20//10
f 17//11 19//11 24//11
f 23//11 24//11 19//11
f 18//12 17//12 22//12
f 24//12 22//12 17//12
