# Blender v2.79 (sub 0) OBJ File: ''
# www.blender.org
mtllib simple_square.mtl
o POLYFACE.660
v 0.587199 -0.589183 0.022683
v -0.612750 -0.579207 0.027411
v -0.612553 -0.579197 0.077410
v 0.587396 -0.589172 0.072683
v -0.602776 0.620751 0.027116
v -0.602579 0.620762 0.077116
v 0.597173 0.610776 0.022389
v 0.597370 0.610786 0.072388
v 0.647586 0.660358 0.022180
v -0.652359 0.671165 0.027301
v -0.652162 0.671176 0.077301
v 0.647784 0.660369 0.072179
v -0.663164 -0.628790 0.027620
v -0.662967 -0.628779 0.077620
v 0.636781 -0.639597 0.022499
v 0.636978 -0.639586 0.072498
vn 0.0083 1.0000 -0.0003
vn 0.0083 1.0000 -0.0002
vn 1.0000 -0.0083 -0.0039
vn -0.0083 -1.0000 0.0003
vn -0.0083 -1.0000 0.0002
vn -1.0000 0.0083 0.0039
vn 1.0000 -0.0083 -0.0040
vn -0.0039 -0.0002 -1.0000
vn 0.0039 0.0002 1.0000
usemtl Bronze
s 1
f 1//1 2//2 3//2
f 1//1 3//2 4//1
f 2//3 5//3 6//3
f 2//3 6//3 3//3
f 5//4 7//5 8//5
f 5//4 8//5 6//4
f 7//6 1//6 4//6
f 7//6 4//6 8//6
f 9//1 10//1 11//1
f 9//1 11//1 12//1
f 10//6 13//6 14//6
f 10//6 14//6 11//6
f 13//4 15//4 16//4
f 13//4 16//4 14//4
f 15//3 9//7 12//7
f 15//3 12//7 16//3
f 7//8 9//8 1//8
f 15//8 1//8 9//8
f 13//8 1//8 15//8
f 13//8 2//8 1//8
f 10//8 2//8 13//8
f 10//8 5//8 2//8
f 9//8 5//8 10//8
f 9//8 7//8 5//8
f 8//9 4//9 12//9
f 16//9 12//9 4//9
f 14//9 16//9 4//9
f 14//9 4//9 3//9
f 11//9 14//9 3//9
f 11//9 3//9 6//9
f 12//9 11//9 6//9
f 12//9 6//9 8//9
